<?xml version="1.0" encoding="UTF-8" standalone="no"?><svg xmlns="http://www.w3.org/2000/svg" xmlns:xlink="http://www.w3.org/1999/xlink" contentScriptType="application/ecmascript" contentStyleType="text/css" height="327px" preserveAspectRatio="none" style="width:1276px;height:327px;" version="1.1" viewBox="0 0 1276 327" width="1276px" zoomAndPan="magnify"><defs><filter height="300%" id="fqzp86nnt2jnl" width="300%" x="-1" y="-1"><feGaussianBlur result="blurOut" stdDeviation="2.0"/><feColorMatrix in="blurOut" result="blurOut2" type="matrix" values="0 0 0 0 0 0 0 0 0 0 0 0 0 0 0 0 0 0 .4 0"/><feOffset dx="4.0" dy="4.0" in="blurOut2" result="blurOut3"/><feBlend in="SourceGraphic" in2="blurOut3" mode="normal"/></filter></defs><g><rect fill="#FFFFFF" filter="url(#fqzp86nnt2jnl)" height="98" style="stroke: #A80036; stroke-width: 1.0;" width="10" x="256" y="116.9375"/><rect fill="#FFFFFF" filter="url(#fqzp86nnt2jnl)" height="14" style="stroke: #A80036; stroke-width: 1.0;" width="10" x="579.5" y="130.9375"/><rect fill="#FFFFFF" filter="url(#fqzp86nnt2jnl)" height="14" style="stroke: #A80036; stroke-width: 1.0;" width="10" x="683" y="158.9375"/><rect fill="#FFFFFF" filter="url(#fqzp86nnt2jnl)" height="14" style="stroke: #A80036; stroke-width: 1.0;" width="10" x="952" y="186.9375"/><line style="stroke: #A80036; stroke-width: 1.0; stroke-dasharray: 5.0,5.0;" x1="45" x2="45" y1="100.9375" y2="232.9375"/><line style="stroke: #A80036; stroke-width: 1.0; stroke-dasharray: 5.0,5.0;" x1="121" x2="121" y1="100.9375" y2="232.9375"/><line style="stroke: #A80036; stroke-width: 1.0; stroke-dasharray: 5.0,5.0;" x1="261" x2="261" y1="100.9375" y2="232.9375"/><line style="stroke: #A80036; stroke-width: 1.0; stroke-dasharray: 5.0,5.0;" x1="413" x2="413" y1="100.9375" y2="232.9375"/><line style="stroke: #A80036; stroke-width: 1.0; stroke-dasharray: 5.0,5.0;" x1="499" x2="499" y1="100.9375" y2="232.9375"/><line style="stroke: #A80036; stroke-width: 1.0; stroke-dasharray: 5.0,5.0;" x1="584" x2="584" y1="100.9375" y2="232.9375"/><line style="stroke: #A80036; stroke-width: 1.0; stroke-dasharray: 5.0,5.0;" x1="688" x2="688" y1="100.9375" y2="232.9375"/><line style="stroke: #A80036; stroke-width: 1.0; stroke-dasharray: 5.0,5.0;" x1="776" x2="776" y1="100.9375" y2="232.9375"/><line style="stroke: #A80036; stroke-width: 1.0; stroke-dasharray: 5.0,5.0;" x1="850" x2="850" y1="100.9375" y2="232.9375"/><line style="stroke: #A80036; stroke-width: 1.0; stroke-dasharray: 5.0,5.0;" x1="957" x2="957" y1="100.9375" y2="232.9375"/><line style="stroke: #A80036; stroke-width: 1.0; stroke-dasharray: 5.0,5.0;" x1="1058" x2="1058" y1="100.9375" y2="232.9375"/><line style="stroke: #A80036; stroke-width: 1.0; stroke-dasharray: 5.0,5.0;" x1="1134" x2="1134" y1="100.9375" y2="232.9375"/><line style="stroke: #A80036; stroke-width: 1.0; stroke-dasharray: 5.0,5.0;" x1="1218" x2="1218" y1="100.9375" y2="232.9375"/><text fill="#000000" font-family="sans-serif" font-size="14" lengthAdjust="spacingAndGlyphs" textLength="68" x="8" y="97.6357">Customer</text><ellipse cx="45" cy="27.6406" fill="#FEFECE" filter="url(#fqzp86nnt2jnl)" rx="8" ry="8" style="stroke: #A80036; stroke-width: 2.0;"/><path d="M45,35.6406 L45,62.6406 M32,43.6406 L58,43.6406 M45,62.6406 L32,77.6406 M45,62.6406 L58,77.6406 " fill="none" filter="url(#fqzp86nnt2jnl)" style="stroke: #A80036; stroke-width: 2.0;"/><text fill="#000000" font-family="sans-serif" font-size="14" lengthAdjust="spacingAndGlyphs" textLength="68" x="8" y="244.9326">Customer</text><ellipse cx="45" cy="258.2344" fill="#FEFECE" filter="url(#fqzp86nnt2jnl)" rx="8" ry="8" style="stroke: #A80036; stroke-width: 2.0;"/><path d="M45,266.2344 L45,293.2344 M32,274.2344 L58,274.2344 M45,293.2344 L32,308.2344 M45,293.2344 L58,308.2344 " fill="none" filter="url(#fqzp86nnt2jnl)" style="stroke: #A80036; stroke-width: 2.0;"/><text fill="#000000" font-family="sans-serif" font-size="14" lengthAdjust="spacingAndGlyphs" textLength="52" x="92" y="97.6357">Catalog</text><path d="M100.5,56.6406 L100.5,80.6406 M100.5,68.6406 L117.5,68.6406 " fill="none" filter="url(#fqzp86nnt2jnl)" style="stroke: #A80036; stroke-width: 2.0;"/><ellipse cx="129.5" cy="68.6406" fill="#FEFECE" filter="url(#fqzp86nnt2jnl)" rx="12" ry="12" style="stroke: #A80036; stroke-width: 2.0;"/><text fill="#000000" font-family="sans-serif" font-size="14" lengthAdjust="spacingAndGlyphs" textLength="52" x="92" y="244.9326">Catalog</text><path d="M100.5,252.2344 L100.5,276.2344 M100.5,264.2344 L117.5,264.2344 " fill="none" filter="url(#fqzp86nnt2jnl)" style="stroke: #A80036; stroke-width: 2.0;"/><ellipse cx="129.5" cy="264.2344" fill="#FEFECE" filter="url(#fqzp86nnt2jnl)" rx="12" ry="12" style="stroke: #A80036; stroke-width: 2.0;"/><text fill="#000000" font-family="sans-serif" font-size="14" lengthAdjust="spacingAndGlyphs" textLength="48" x="234" y="65.042">Basket</text><text fill="#000000" font-family="sans-serif" font-size="14" lengthAdjust="spacingAndGlyphs" textLength="127" x="194.5" y="81.3389">(Shopping Basket,</text><text fill="#000000" font-family="sans-serif" font-size="14" lengthAdjust="spacingAndGlyphs" textLength="196" x="160" y="97.6357">Collection of selected items)</text><path d="M240.5,24.0469 L240.5,48.0469 M240.5,36.0469 L257.5,36.0469 " fill="none" filter="url(#fqzp86nnt2jnl)" style="stroke: #A80036; stroke-width: 2.0;"/><ellipse cx="269.5" cy="36.0469" fill="#FEFECE" filter="url(#fqzp86nnt2jnl)" rx="12" ry="12" style="stroke: #A80036; stroke-width: 2.0;"/><text fill="#000000" font-family="sans-serif" font-size="14" lengthAdjust="spacingAndGlyphs" textLength="48" x="234" y="244.9326">Basket</text><text fill="#000000" font-family="sans-serif" font-size="14" lengthAdjust="spacingAndGlyphs" textLength="127" x="194.5" y="261.2295">(Shopping Basket,</text><text fill="#000000" font-family="sans-serif" font-size="14" lengthAdjust="spacingAndGlyphs" textLength="196" x="160" y="277.5264">Collection of selected items)</text><path d="M240.5,284.8281 L240.5,308.8281 M240.5,296.8281 L257.5,296.8281 " fill="none" filter="url(#fqzp86nnt2jnl)" style="stroke: #A80036; stroke-width: 2.0;"/><ellipse cx="269.5" cy="296.8281" fill="#FEFECE" filter="url(#fqzp86nnt2jnl)" rx="12" ry="12" style="stroke: #A80036; stroke-width: 2.0;"/><text fill="#000000" font-family="sans-serif" font-size="14" lengthAdjust="spacingAndGlyphs" textLength="39" x="391" y="81.3389">Order</text><text fill="#000000" font-family="sans-serif" font-size="14" lengthAdjust="spacingAndGlyphs" textLength="77" x="372" y="97.6357">(Checkout)</text><path d="M393,40.3438 L393,64.3438 M393,52.3438 L410,52.3438 " fill="none" filter="url(#fqzp86nnt2jnl)" style="stroke: #A80036; stroke-width: 2.0;"/><ellipse cx="422" cy="52.3438" fill="#FEFECE" filter="url(#fqzp86nnt2jnl)" rx="12" ry="12" style="stroke: #A80036; stroke-width: 2.0;"/><text fill="#000000" font-family="sans-serif" font-size="14" lengthAdjust="spacingAndGlyphs" textLength="39" x="391" y="244.9326">Order</text><text fill="#000000" font-family="sans-serif" font-size="14" lengthAdjust="spacingAndGlyphs" textLength="77" x="372" y="261.2295">(Checkout)</text><path d="M393,268.5313 L393,292.5313 M393,280.5313 L410,280.5313 " fill="none" filter="url(#fqzp86nnt2jnl)" style="stroke: #A80036; stroke-width: 2.0;"/><ellipse cx="422" cy="280.5313" fill="#FEFECE" filter="url(#fqzp86nnt2jnl)" rx="12" ry="12" style="stroke: #A80036; stroke-width: 2.0;"/><text fill="#000000" font-family="sans-serif" font-size="14" lengthAdjust="spacingAndGlyphs" textLength="62" x="465" y="97.6357">Products</text><path d="M478.5,56.6406 L478.5,80.6406 M478.5,68.6406 L495.5,68.6406 " fill="none" filter="url(#fqzp86nnt2jnl)" style="stroke: #A80036; stroke-width: 2.0;"/><ellipse cx="507.5" cy="68.6406" fill="#FEFECE" filter="url(#fqzp86nnt2jnl)" rx="12" ry="12" style="stroke: #A80036; stroke-width: 2.0;"/><text fill="#000000" font-family="sans-serif" font-size="14" lengthAdjust="spacingAndGlyphs" textLength="62" x="465" y="244.9326">Products</text><path d="M478.5,252.2344 L478.5,276.2344 M478.5,264.2344 L495.5,264.2344 " fill="none" filter="url(#fqzp86nnt2jnl)" style="stroke: #A80036; stroke-width: 2.0;"/><ellipse cx="507.5" cy="264.2344" fill="#FEFECE" filter="url(#fqzp86nnt2jnl)" rx="12" ry="12" style="stroke: #A80036; stroke-width: 2.0;"/><text fill="#000000" font-family="sans-serif" font-size="14" lengthAdjust="spacingAndGlyphs" textLength="39" x="562" y="81.3389">Stock</text><text fill="#000000" font-family="sans-serif" font-size="14" lengthAdjust="spacingAndGlyphs" textLength="77" x="543" y="97.6357">(availability)</text><path d="M564,40.3438 L564,64.3438 M564,52.3438 L581,52.3438 " fill="none" filter="url(#fqzp86nnt2jnl)" style="stroke: #A80036; stroke-width: 2.0;"/><ellipse cx="593" cy="52.3438" fill="#FEFECE" filter="url(#fqzp86nnt2jnl)" rx="12" ry="12" style="stroke: #A80036; stroke-width: 2.0;"/><text fill="#000000" font-family="sans-serif" font-size="14" lengthAdjust="spacingAndGlyphs" textLength="39" x="562" y="244.9326">Stock</text><text fill="#000000" font-family="sans-serif" font-size="14" lengthAdjust="spacingAndGlyphs" textLength="77" x="543" y="261.2295">(availability)</text><path d="M564,268.5313 L564,292.5313 M564,280.5313 L581,280.5313 " fill="none" filter="url(#fqzp86nnt2jnl)" style="stroke: #A80036; stroke-width: 2.0;"/><ellipse cx="593" cy="280.5313" fill="#FEFECE" filter="url(#fqzp86nnt2jnl)" rx="12" ry="12" style="stroke: #A80036; stroke-width: 2.0;"/><text fill="#000000" font-family="sans-serif" font-size="14" lengthAdjust="spacingAndGlyphs" textLength="41" x="664.5" y="81.3389">Media</text><text fill="#000000" font-family="sans-serif" font-size="14" lengthAdjust="spacingAndGlyphs" textLength="98" x="636" y="97.6357">(videos, fotos)</text><path d="M667.5,40.3438 L667.5,64.3438 M667.5,52.3438 L684.5,52.3438 " fill="none" filter="url(#fqzp86nnt2jnl)" style="stroke: #A80036; stroke-width: 2.0;"/><ellipse cx="696.5" cy="52.3438" fill="#FEFECE" filter="url(#fqzp86nnt2jnl)" rx="12" ry="12" style="stroke: #A80036; stroke-width: 2.0;"/><text fill="#000000" font-family="sans-serif" font-size="14" lengthAdjust="spacingAndGlyphs" textLength="41" x="664.5" y="244.9326">Media</text><text fill="#000000" font-family="sans-serif" font-size="14" lengthAdjust="spacingAndGlyphs" textLength="98" x="636" y="261.2295">(videos, fotos)</text><path d="M667.5,268.5313 L667.5,292.5313 M667.5,280.5313 L684.5,280.5313 " fill="none" filter="url(#fqzp86nnt2jnl)" style="stroke: #A80036; stroke-width: 2.0;"/><ellipse cx="696.5" cy="280.5313" fill="#FEFECE" filter="url(#fqzp86nnt2jnl)" rx="12" ry="12" style="stroke: #A80036; stroke-width: 2.0;"/><text fill="#000000" font-family="sans-serif" font-size="14" lengthAdjust="spacingAndGlyphs" textLength="46" x="750" y="97.6357">Pricing</text><path d="M755.5,56.6406 L755.5,80.6406 M755.5,68.6406 L772.5,68.6406 " fill="none" filter="url(#fqzp86nnt2jnl)" style="stroke: #A80036; stroke-width: 2.0;"/><ellipse cx="784.5" cy="68.6406" fill="#FEFECE" filter="url(#fqzp86nnt2jnl)" rx="12" ry="12" style="stroke: #A80036; stroke-width: 2.0;"/><text fill="#000000" font-family="sans-serif" font-size="14" lengthAdjust="spacingAndGlyphs" textLength="46" x="750" y="244.9326">Pricing</text><path d="M755.5,252.2344 L755.5,276.2344 M755.5,264.2344 L772.5,264.2344 " fill="none" filter="url(#fqzp86nnt2jnl)" style="stroke: #A80036; stroke-width: 2.0;"/><ellipse cx="784.5" cy="264.2344" fill="#FEFECE" filter="url(#fqzp86nnt2jnl)" rx="12" ry="12" style="stroke: #A80036; stroke-width: 2.0;"/><text fill="#000000" font-family="sans-serif" font-size="14" lengthAdjust="spacingAndGlyphs" textLength="71" x="812" y="97.6357">Promotion</text><path d="M830,56.6406 L830,80.6406 M830,68.6406 L847,68.6406 " fill="none" filter="url(#fqzp86nnt2jnl)" style="stroke: #A80036; stroke-width: 2.0;"/><ellipse cx="859" cy="68.6406" fill="#FEFECE" filter="url(#fqzp86nnt2jnl)" rx="12" ry="12" style="stroke: #A80036; stroke-width: 2.0;"/><text fill="#000000" font-family="sans-serif" font-size="14" lengthAdjust="spacingAndGlyphs" textLength="71" x="812" y="244.9326">Promotion</text><path d="M830,252.2344 L830,276.2344 M830,264.2344 L847,264.2344 " fill="none" filter="url(#fqzp86nnt2jnl)" style="stroke: #A80036; stroke-width: 2.0;"/><ellipse cx="859" cy="264.2344" fill="#FEFECE" filter="url(#fqzp86nnt2jnl)" rx="12" ry="12" style="stroke: #A80036; stroke-width: 2.0;"/><text fill="#000000" font-family="sans-serif" font-size="14" lengthAdjust="spacingAndGlyphs" textLength="110" x="899" y="97.6357">Recomendation</text><path d="M936.5,56.6406 L936.5,80.6406 M936.5,68.6406 L953.5,68.6406 " fill="none" filter="url(#fqzp86nnt2jnl)" style="stroke: #A80036; stroke-width: 2.0;"/><ellipse cx="965.5" cy="68.6406" fill="#FEFECE" filter="url(#fqzp86nnt2jnl)" rx="12" ry="12" style="stroke: #A80036; stroke-width: 2.0;"/><text fill="#000000" font-family="sans-serif" font-size="14" lengthAdjust="spacingAndGlyphs" textLength="110" x="899" y="244.9326">Recomendation</text><path d="M936.5,252.2344 L936.5,276.2344 M936.5,264.2344 L953.5,264.2344 " fill="none" filter="url(#fqzp86nnt2jnl)" style="stroke: #A80036; stroke-width: 2.0;"/><ellipse cx="965.5" cy="264.2344" fill="#FEFECE" filter="url(#fqzp86nnt2jnl)" rx="12" ry="12" style="stroke: #A80036; stroke-width: 2.0;"/><text fill="#000000" font-family="sans-serif" font-size="14" lengthAdjust="spacingAndGlyphs" textLength="60" x="1025" y="97.6357">Logistics</text><path d="M1037.5,56.6406 L1037.5,80.6406 M1037.5,68.6406 L1054.5,68.6406 " fill="none" filter="url(#fqzp86nnt2jnl)" style="stroke: #A80036; stroke-width: 2.0;"/><ellipse cx="1066.5" cy="68.6406" fill="#FEFECE" filter="url(#fqzp86nnt2jnl)" rx="12" ry="12" style="stroke: #A80036; stroke-width: 2.0;"/><text fill="#000000" font-family="sans-serif" font-size="14" lengthAdjust="spacingAndGlyphs" textLength="60" x="1025" y="244.9326">Logistics</text><path d="M1037.5,252.2344 L1037.5,276.2344 M1037.5,264.2344 L1054.5,264.2344 " fill="none" filter="url(#fqzp86nnt2jnl)" style="stroke: #A80036; stroke-width: 2.0;"/><ellipse cx="1066.5" cy="264.2344" fill="#FEFECE" filter="url(#fqzp86nnt2jnl)" rx="12" ry="12" style="stroke: #A80036; stroke-width: 2.0;"/><text fill="#000000" font-family="sans-serif" font-size="14" lengthAdjust="spacingAndGlyphs" textLength="60" x="1101" y="97.6357">Payment</text><path d="M1113.5,56.6406 L1113.5,80.6406 M1113.5,68.6406 L1130.5,68.6406 " fill="none" filter="url(#fqzp86nnt2jnl)" style="stroke: #A80036; stroke-width: 2.0;"/><ellipse cx="1142.5" cy="68.6406" fill="#FEFECE" filter="url(#fqzp86nnt2jnl)" rx="12" ry="12" style="stroke: #A80036; stroke-width: 2.0;"/><text fill="#000000" font-family="sans-serif" font-size="14" lengthAdjust="spacingAndGlyphs" textLength="60" x="1101" y="244.9326">Payment</text><path d="M1113.5,252.2344 L1113.5,276.2344 M1113.5,264.2344 L1130.5,264.2344 " fill="none" filter="url(#fqzp86nnt2jnl)" style="stroke: #A80036; stroke-width: 2.0;"/><ellipse cx="1142.5" cy="264.2344" fill="#FEFECE" filter="url(#fqzp86nnt2jnl)" rx="12" ry="12" style="stroke: #A80036; stroke-width: 2.0;"/><text fill="#000000" font-family="sans-serif" font-size="14" lengthAdjust="spacingAndGlyphs" textLength="76" x="1177" y="97.6357">Customers</text><path d="M1197.5,56.6406 L1197.5,80.6406 M1197.5,68.6406 L1214.5,68.6406 " fill="none" filter="url(#fqzp86nnt2jnl)" style="stroke: #A80036; stroke-width: 2.0;"/><ellipse cx="1226.5" cy="68.6406" fill="#FEFECE" filter="url(#fqzp86nnt2jnl)" rx="12" ry="12" style="stroke: #A80036; stroke-width: 2.0;"/><text fill="#000000" font-family="sans-serif" font-size="14" lengthAdjust="spacingAndGlyphs" textLength="76" x="1177" y="244.9326">Customers</text><path d="M1197.5,252.2344 L1197.5,276.2344 M1197.5,264.2344 L1214.5,264.2344 " fill="none" filter="url(#fqzp86nnt2jnl)" style="stroke: #A80036; stroke-width: 2.0;"/><ellipse cx="1226.5" cy="264.2344" fill="#FEFECE" filter="url(#fqzp86nnt2jnl)" rx="12" ry="12" style="stroke: #A80036; stroke-width: 2.0;"/><rect fill="#FFFFFF" filter="url(#fqzp86nnt2jnl)" height="98" style="stroke: #A80036; stroke-width: 1.0;" width="10" x="256" y="116.9375"/><rect fill="#FFFFFF" filter="url(#fqzp86nnt2jnl)" height="14" style="stroke: #A80036; stroke-width: 1.0;" width="10" x="579.5" y="130.9375"/><rect fill="#FFFFFF" filter="url(#fqzp86nnt2jnl)" height="14" style="stroke: #A80036; stroke-width: 1.0;" width="10" x="683" y="158.9375"/><rect fill="#FFFFFF" filter="url(#fqzp86nnt2jnl)" height="14" style="stroke: #A80036; stroke-width: 1.0;" width="10" x="952" y="186.9375"/><polygon fill="#A80036" points="244,112.9375,254,116.9375,244,120.9375,248,116.9375" style="stroke: #A80036; stroke-width: 1.0;"/><line style="stroke: #A80036; stroke-width: 1.0;" x1="45" x2="250" y1="116.9375" y2="116.9375"/><polygon fill="#A80036" points="567.5,126.9375,577.5,130.9375,567.5,134.9375,571.5,130.9375" style="stroke: #A80036; stroke-width: 1.0;"/><line style="stroke: #A80036; stroke-width: 1.0;" x1="266" x2="573.5" y1="130.9375" y2="130.9375"/><polygon fill="#A80036" points="277,140.9375,267,144.9375,277,148.9375,273,144.9375" style="stroke: #A80036; stroke-width: 1.0;"/><line style="stroke: #A80036; stroke-width: 1.0; stroke-dasharray: 2.0,2.0;" x1="271" x2="583.5" y1="144.9375" y2="144.9375"/><polygon fill="#A80036" points="671,154.9375,681,158.9375,671,162.9375,675,158.9375" style="stroke: #A80036; stroke-width: 1.0;"/><line style="stroke: #A80036; stroke-width: 1.0;" x1="266" x2="677" y1="158.9375" y2="158.9375"/><polygon fill="#A80036" points="277,168.9375,267,172.9375,277,176.9375,273,172.9375" style="stroke: #A80036; stroke-width: 1.0;"/><line style="stroke: #A80036; stroke-width: 1.0; stroke-dasharray: 2.0,2.0;" x1="271" x2="687" y1="172.9375" y2="172.9375"/><polygon fill="#A80036" points="940,182.9375,950,186.9375,940,190.9375,944,186.9375" style="stroke: #A80036; stroke-width: 1.0;"/><line style="stroke: #A80036; stroke-width: 1.0;" x1="266" x2="946" y1="186.9375" y2="186.9375"/><polygon fill="#A80036" points="277,196.9375,267,200.9375,277,204.9375,273,200.9375" style="stroke: #A80036; stroke-width: 1.0;"/><line style="stroke: #A80036; stroke-width: 1.0; stroke-dasharray: 2.0,2.0;" x1="271" x2="956" y1="200.9375" y2="200.9375"/><polygon fill="#A80036" points="56,210.9375,46,214.9375,56,218.9375,52,214.9375" style="stroke: #A80036; stroke-width: 1.0;"/><line style="stroke: #A80036; stroke-width: 1.0; stroke-dasharray: 2.0,2.0;" x1="50" x2="260" y1="214.9375" y2="214.9375"/><text fill="#888888" font-family="sans-serif" font-size="10" lengthAdjust="spacingAndGlyphs" textLength="59" x="1205" y="12.2822">View Basket</text><!--MD5=[ff879f04503a9f4cb0686730ffaca502]
@startuml
actor Customer as user
boundary Catalog as catalog
boundary "Basket\n(Shopping Basket,\nCollection of selected items)" as basket
boundary "Order\n(Checkout)" as order
boundary Products as products
boundary "Stock\n(availability)" as stock
boundary "Media\n(videos, fotos)" as media
boundary "Pricing" as pricing
boundary "Promotion" as promotion
boundary "Recomendation" as recomendation
boundary "Logistics" as logistics
boundary "Payment" as payment
boundary "Customers" as users


header: View Basket

user -> basket ++
	basket -> stock ++
    return
    basket -> media ++
    return
	basket -> recomendation ++
    return
return
@enduml

PlantUML version 1.2020.15(Sun Jun 28 11:39:45 UTC 2020)
(GPL source distribution)
Java Runtime: OpenJDK Runtime Environment
JVM: OpenJDK 64-Bit Server VM
Default Encoding: UTF-8
Language: en
Country: null
--></g></svg>